<svg width="46" height="46" viewBox="0 0 46 46" fill="none" xmlns="http://www.w3.org/2000/svg">
<path d="M24.9705 3.83472C27.1275 3.83828 28.2206 3.84971 29.1651 3.87782L29.5372 3.88997C29.9669 3.90525 30.3909 3.92442 30.902 3.94838C32.9416 4.04262 34.3329 4.36525 35.5547 4.83962C36.818 5.32678 37.885 5.98483 38.9503 7.05019C40.014 8.11553 40.6722 9.18567 41.161 10.4459C41.6336 11.6662 41.9564 13.0589 42.0522 15.0986C42.075 15.6097 42.0934 16.0337 42.1086 16.4635L42.1207 16.8355C42.1486 17.7799 42.1615 18.8731 42.1655 21.0302L42.167 22.4593C42.1672 22.6339 42.1672 22.8141 42.1672 23L42.167 23.5407L42.1659 24.9699C42.1623 27.1269 42.1509 28.2202 42.1228 29.1646L42.1105 29.5366C42.0954 29.9665 42.0762 30.3905 42.0522 30.9014C41.9579 32.9412 41.6336 34.3323 41.161 35.5541C40.6738 36.8176 40.014 37.8846 38.9503 38.9499C37.885 40.0137 36.8132 40.6716 35.5547 41.1604C34.3329 41.6332 32.9416 41.9558 30.902 42.0517C30.3909 42.0745 29.9669 42.093 29.5372 42.108L29.1651 42.1201C28.2206 42.1483 27.1275 42.1609 24.9705 42.1651L23.5413 42.1666C23.3667 42.1666 23.1865 42.1666 23.0006 42.1666H22.4599L21.0306 42.1653C18.8736 42.1619 17.7804 42.1504 16.8359 42.1222L16.4639 42.1101C16.0341 42.0948 15.6102 42.0756 15.0991 42.0517C13.0594 41.9575 11.6698 41.6332 10.4464 41.1604C9.18455 40.6734 8.116 40.0137 7.05066 38.9499C5.98532 37.8846 5.32886 36.8128 4.84011 35.5541C4.36574 34.3323 4.0447 32.9412 3.94886 30.9014C3.92609 30.3905 3.90752 29.9665 3.89248 29.5366L3.88042 29.1646C3.85238 28.2202 3.83959 27.1269 3.83545 24.9699L3.83521 21.0302C3.83877 18.8731 3.85017 17.7799 3.87829 16.8355L3.89046 16.4635C3.90574 16.0337 3.92491 15.6097 3.94886 15.0986C4.04309 13.0573 4.36574 11.6677 4.84011 10.4459C5.32725 9.18408 5.98532 8.11553 7.05066 7.05019C8.116 5.98483 9.18616 5.32837 10.4464 4.83962C11.6682 4.36525 13.0578 4.04421 15.0991 3.94838C15.6102 3.92562 16.0341 3.90705 16.4639 3.89201L16.8359 3.87995C17.7804 3.85189 18.8736 3.83911 21.0306 3.83497L24.9705 3.83472ZM23.0006 13.4167C17.705 13.4167 13.4172 17.7091 13.4172 23C13.4172 28.2955 17.7096 32.5833 23.0006 32.5833C28.2961 32.5833 32.5839 28.2909 32.5839 23C32.5839 17.7045 28.2913 13.4167 23.0006 13.4167ZM23.0006 17.25C26.1763 17.25 28.7506 19.8235 28.7506 23C28.7506 26.1757 26.1771 28.75 23.0006 28.75C19.8248 28.75 17.2505 26.1767 17.2505 23C17.2505 19.8243 19.8239 17.25 23.0006 17.25ZM33.0631 10.5417C31.7419 10.5417 30.6672 11.6149 30.6672 12.9359C30.6672 14.257 31.7404 15.3318 33.0631 15.3318C34.384 15.3318 35.4589 14.2586 35.4589 12.9359C35.4589 11.6149 34.3823 10.5401 33.0631 10.5417Z" fill="white"/>
</svg>
