<svg width="239" height="87" viewBox="0 0 239 87" fill="none" xmlns="http://www.w3.org/2000/svg">
<path d="M12.0391 46V11.0909H37.1982V18.7273H21.5163V24.7273H35.9027V32.3636H21.5163V38.3636H37.13V46H12.0391ZM51.5121 46.3409C49.6484 46.3409 47.9325 45.8523 46.3643 44.875C44.8075 43.8977 43.5575 42.4148 42.6143 40.4261C41.6825 38.4375 41.2166 35.9318 41.2166 32.9091C41.2166 29.75 41.7053 27.1818 42.6825 25.2045C43.6712 23.2273 44.9439 21.7784 46.5007 20.858C48.0689 19.9375 49.7166 19.4773 51.4439 19.4773C52.7393 19.4773 53.8757 19.7045 54.853 20.1591C55.8303 20.6023 56.6484 21.1989 57.3075 21.9489C57.9666 22.6875 58.4666 23.5 58.8075 24.3864H58.9439V11.0909H68.353V46H59.0121V41.7045H58.8075C58.4439 42.5909 57.9212 43.3864 57.2393 44.0909C56.5689 44.7841 55.7507 45.3352 54.7848 45.7443C53.8303 46.142 52.7393 46.3409 51.5121 46.3409ZM54.9893 39.1136C55.853 39.1136 56.5916 38.8636 57.2053 38.3636C57.8303 37.8523 58.3075 37.1364 58.6371 36.2159C58.978 35.2841 59.1484 34.1818 59.1484 32.9091C59.1484 31.6136 58.978 30.5057 58.6371 29.5852C58.3075 28.6534 57.8303 27.9432 57.2053 27.4545C56.5916 26.9545 55.853 26.7045 54.9893 26.7045C54.1257 26.7045 53.3871 26.9545 52.7734 27.4545C52.1712 27.9432 51.7053 28.6534 51.3757 29.5852C51.0575 30.5057 50.8984 31.6136 50.8984 32.9091C50.8984 34.2045 51.0575 35.3182 51.3757 36.25C51.7053 37.1705 52.1712 37.8807 52.7734 38.3807C53.3871 38.8693 54.1257 39.1136 54.9893 39.1136ZM89.9496 34.5455V19.8182H99.3587V46H90.4268V41.0227H90.1541C89.5859 42.6932 88.5916 44 87.1712 44.9432C85.7507 45.875 84.0632 46.3409 82.1087 46.3409C80.2791 46.3409 78.6768 45.9205 77.3018 45.0795C75.9382 44.2386 74.8757 43.0795 74.1143 41.6023C73.3643 40.125 72.9837 38.4318 72.9723 36.5227V19.8182H82.3814V34.5455C82.3928 35.8409 82.7223 36.858 83.37 37.5966C84.0291 38.3352 84.9496 38.7045 86.1314 38.7045C86.9155 38.7045 87.5916 38.5398 88.1598 38.2102C88.7393 37.8693 89.1825 37.392 89.4893 36.7784C89.8075 36.1534 89.9609 35.4091 89.9496 34.5455ZM116.758 46.4773C113.917 46.4773 111.485 45.9148 109.462 44.7898C107.44 43.6534 105.888 42.0739 104.809 40.0511C103.729 38.017 103.19 35.6591 103.19 32.9773C103.19 30.2955 103.729 27.9432 104.809 25.9205C105.888 23.8864 107.44 22.3068 109.462 21.1818C111.485 20.0455 113.917 19.4773 116.758 19.4773C119.326 19.4773 121.548 19.9432 123.423 20.875C125.309 21.7955 126.769 23.1023 127.803 24.7955C128.837 26.4773 129.36 28.4545 129.371 30.7273H120.644C120.519 29.3523 120.121 28.3068 119.451 27.5909C118.792 26.8636 117.94 26.5 116.894 26.5C116.076 26.5 115.36 26.7386 114.746 27.2159C114.133 27.6818 113.656 28.392 113.315 29.3466C112.974 30.2898 112.803 31.4773 112.803 32.9091C112.803 34.3409 112.974 35.5341 113.315 36.4886C113.656 37.4318 114.133 38.142 114.746 38.6193C115.36 39.0852 116.076 39.3182 116.894 39.3182C117.587 39.3182 118.201 39.1591 118.735 38.8409C119.269 38.5114 119.701 38.0341 120.031 37.4091C120.371 36.7727 120.576 36 120.644 35.0909H129.371C129.337 37.3977 128.809 39.4091 127.786 41.125C126.763 42.8295 125.315 44.1477 123.44 45.0795C121.576 46.0114 119.349 46.4773 116.758 46.4773ZM140.549 46.4091C138.879 46.4091 137.401 46.1364 136.117 45.5909C134.844 45.0341 133.844 44.1932 133.117 43.0682C132.39 41.9432 132.026 40.5114 132.026 38.7727C132.026 37.3409 132.271 36.1193 132.759 35.108C133.248 34.0852 133.93 33.25 134.805 32.6023C135.68 31.9545 136.697 31.4602 137.856 31.1193C139.026 30.7784 140.288 30.5568 141.64 30.4545C143.106 30.3409 144.282 30.2045 145.168 30.0455C146.066 29.875 146.714 29.642 147.112 29.3466C147.509 29.0398 147.708 28.6364 147.708 28.1364V28.0682C147.708 27.3864 147.447 26.8636 146.924 26.5C146.401 26.1364 145.731 25.9545 144.913 25.9545C144.015 25.9545 143.282 26.1534 142.714 26.5511C142.157 26.9375 141.822 27.5341 141.708 28.3409H133.049C133.163 26.75 133.668 25.2841 134.566 23.9432C135.475 22.5909 136.799 21.5114 138.538 20.7045C140.276 19.8864 142.447 19.4773 145.049 19.4773C146.924 19.4773 148.606 19.6989 150.094 20.142C151.583 20.5739 152.85 21.1818 153.896 21.9659C154.941 22.7386 155.737 23.6477 156.282 24.6932C156.839 25.7273 157.117 26.8523 157.117 28.0682V46H148.322V42.3182H148.117C147.594 43.2955 146.958 44.0852 146.208 44.6875C145.469 45.2898 144.623 45.7273 143.668 46C142.725 46.2727 141.685 46.4091 140.549 46.4091ZM143.617 40.4773C144.333 40.4773 145.004 40.3295 145.629 40.0341C146.265 39.7386 146.782 39.3125 147.18 38.7557C147.577 38.1989 147.776 37.5227 147.776 36.7273V34.5455C147.526 34.6477 147.259 34.7443 146.975 34.8352C146.702 34.9261 146.407 35.0114 146.089 35.0909C145.782 35.1705 145.452 35.2443 145.1 35.3125C144.759 35.3807 144.401 35.4432 144.026 35.5C143.299 35.6136 142.702 35.8011 142.237 36.0625C141.782 36.3125 141.441 36.625 141.214 37C140.998 37.3636 140.89 37.7727 140.89 38.2273C140.89 38.9545 141.146 39.5114 141.657 39.8977C142.168 40.2841 142.822 40.4773 143.617 40.4773ZM177.227 19.8182V26.6364H159.977V19.8182H177.227ZM163.317 13.5455H172.727V37.5795C172.727 37.9432 172.789 38.25 172.914 38.5C173.039 38.7386 173.232 38.9205 173.494 39.0455C173.755 39.1591 174.09 39.2159 174.499 39.2159C174.783 39.2159 175.113 39.1818 175.488 39.1136C175.874 39.0455 176.158 38.9886 176.34 38.9432L177.704 45.5568C177.283 45.6818 176.681 45.8352 175.897 46.017C175.124 46.1989 174.204 46.3182 173.136 46.375C170.977 46.4886 169.164 46.267 167.698 45.7102C166.232 45.142 165.13 44.25 164.391 43.0341C163.653 41.8182 163.295 40.2955 163.317 38.4659V13.5455ZM193.398 46.4773C190.558 46.4773 188.126 45.9148 186.103 44.7898C184.08 43.6534 182.529 42.0739 181.45 40.0511C180.37 38.017 179.83 35.6591 179.83 32.9773C179.83 30.2955 180.37 27.9432 181.45 25.9205C182.529 23.8864 184.08 22.3068 186.103 21.1818C188.126 20.0455 190.558 19.4773 193.398 19.4773C196.239 19.4773 198.671 20.0455 200.694 21.1818C202.717 22.3068 204.268 23.8864 205.347 25.9205C206.427 27.9432 206.967 30.2955 206.967 32.9773C206.967 35.6591 206.427 38.017 205.347 40.0511C204.268 42.0739 202.717 43.6534 200.694 44.7898C198.671 45.9148 196.239 46.4773 193.398 46.4773ZM193.467 39.5227C194.262 39.5227 194.95 39.2557 195.529 38.7216C196.109 38.1875 196.558 37.4261 196.876 36.4375C197.194 35.4489 197.353 34.2727 197.353 32.9091C197.353 31.5341 197.194 30.358 196.876 29.3807C196.558 28.392 196.109 27.6307 195.529 27.0966C194.95 26.5625 194.262 26.2955 193.467 26.2955C192.626 26.2955 191.904 26.5625 191.302 27.0966C190.7 27.6307 190.239 28.392 189.921 29.3807C189.603 30.358 189.444 31.5341 189.444 32.9091C189.444 34.2727 189.603 35.4489 189.921 36.4375C190.239 37.4261 190.7 38.1875 191.302 38.7216C191.904 39.2557 192.626 39.5227 193.467 39.5227ZM210.785 46V19.8182H219.921V24.7955H220.194C220.671 22.9545 221.427 21.608 222.461 20.7557C223.506 19.9034 224.728 19.4773 226.126 19.4773C226.535 19.4773 226.938 19.5114 227.336 19.5795C227.745 19.6364 228.137 19.7216 228.512 19.8352V27.8636C228.046 27.7045 227.472 27.5852 226.79 27.5057C226.109 27.4261 225.523 27.3864 225.035 27.3864C224.114 27.3864 223.285 27.5966 222.546 28.017C221.819 28.4261 221.245 29.0057 220.825 29.7557C220.404 30.4943 220.194 31.3636 220.194 32.3636V46H210.785Z" fill="#FF8B37"/>
<path d="M125.633 63.5455H128.156L134.088 78.0341H134.292L140.224 63.5455H142.747V81H140.77V67.7386H140.599L135.145 81H133.235L127.781 67.7386H127.61V81H125.633V63.5455ZM150.564 81.3068C149.735 81.3068 148.982 81.1506 148.306 80.8381C147.63 80.5199 147.093 80.0625 146.695 79.4659C146.297 78.8636 146.098 78.1364 146.098 77.2841C146.098 76.5341 146.246 75.9261 146.542 75.4602C146.837 74.9886 147.232 74.6193 147.726 74.3523C148.221 74.0852 148.766 73.8864 149.363 73.7557C149.965 73.6193 150.57 73.5114 151.178 73.4318C151.973 73.3295 152.618 73.2528 153.113 73.2017C153.613 73.1449 153.976 73.0511 154.203 72.9205C154.436 72.7898 154.553 72.5625 154.553 72.2386V72.1705C154.553 71.3295 154.323 70.6761 153.863 70.2102C153.408 69.7443 152.718 69.5114 151.792 69.5114C150.831 69.5114 150.078 69.7216 149.533 70.142C148.988 70.5625 148.604 71.0114 148.382 71.4886L146.473 70.8068C146.814 70.0114 147.269 69.392 147.837 68.9489C148.411 68.5 149.036 68.1875 149.712 68.0114C150.394 67.8295 151.064 67.7386 151.723 67.7386C152.144 67.7386 152.627 67.7898 153.172 67.892C153.723 67.9886 154.255 68.1903 154.766 68.4972C155.283 68.804 155.712 69.267 156.053 69.8864C156.394 70.5057 156.564 71.3352 156.564 72.375V81H154.553V79.2273H154.451C154.314 79.5114 154.087 79.8153 153.769 80.1392C153.451 80.4631 153.027 80.7386 152.499 80.9659C151.971 81.1932 151.326 81.3068 150.564 81.3068ZM150.871 79.5C151.667 79.5 152.337 79.3438 152.882 79.0312C153.434 78.7188 153.848 78.3153 154.127 77.821C154.411 77.3267 154.553 76.8068 154.553 76.2614V74.4205C154.468 74.5227 154.28 74.6165 153.99 74.7017C153.706 74.7812 153.377 74.8523 153.002 74.9148C152.632 74.9716 152.272 75.0227 151.919 75.0682C151.573 75.108 151.292 75.142 151.076 75.1705C150.553 75.2386 150.064 75.3494 149.61 75.5028C149.161 75.6506 148.797 75.875 148.519 76.1761C148.246 76.4716 148.11 76.875 148.11 77.3864C148.11 78.0852 148.368 78.6136 148.885 78.9716C149.408 79.3239 150.07 79.5 150.871 79.5ZM162.247 73.125V81H160.235V67.9091H162.179V69.9545H162.349C162.656 69.2898 163.122 68.7557 163.747 68.3523C164.372 67.9432 165.179 67.7386 166.167 67.7386C167.054 67.7386 167.829 67.9205 168.494 68.2841C169.159 68.642 169.676 69.1875 170.045 69.9205C170.414 70.6477 170.599 71.5682 170.599 72.6818V81H168.588V72.8182C168.588 71.7898 168.321 70.9886 167.787 70.4148C167.252 69.8352 166.52 69.5455 165.588 69.5455C164.946 69.5455 164.372 69.6847 163.866 69.9631C163.366 70.2415 162.971 70.6477 162.681 71.1818C162.392 71.7159 162.247 72.3636 162.247 73.125ZM178.127 81.3068C177.297 81.3068 176.544 81.1506 175.868 80.8381C175.192 80.5199 174.655 80.0625 174.257 79.4659C173.86 78.8636 173.661 78.1364 173.661 77.2841C173.661 76.5341 173.809 75.9261 174.104 75.4602C174.4 74.9886 174.794 74.6193 175.289 74.3523C175.783 74.0852 176.328 73.8864 176.925 73.7557C177.527 73.6193 178.132 73.5114 178.74 73.4318C179.536 73.3295 180.181 73.2528 180.675 73.2017C181.175 73.1449 181.539 73.0511 181.766 72.9205C181.999 72.7898 182.115 72.5625 182.115 72.2386V72.1705C182.115 71.3295 181.885 70.6761 181.425 70.2102C180.971 69.7443 180.28 69.5114 179.354 69.5114C178.394 69.5114 177.641 69.7216 177.096 70.142C176.55 70.5625 176.167 71.0114 175.945 71.4886L174.036 70.8068C174.377 70.0114 174.831 69.392 175.4 68.9489C175.973 68.5 176.598 68.1875 177.275 68.0114C177.956 67.8295 178.627 67.7386 179.286 67.7386C179.706 67.7386 180.189 67.7898 180.735 67.892C181.286 67.9886 181.817 68.1903 182.328 68.4972C182.846 68.804 183.275 69.267 183.615 69.8864C183.956 70.5057 184.127 71.3352 184.127 72.375V81H182.115V79.2273H182.013C181.877 79.5114 181.65 79.8153 181.331 80.1392C181.013 80.4631 180.59 80.7386 180.061 80.9659C179.533 81.1932 178.888 81.3068 178.127 81.3068ZM178.434 79.5C179.229 79.5 179.9 79.3438 180.445 79.0312C180.996 78.7188 181.411 78.3153 181.689 77.821C181.973 77.3267 182.115 76.8068 182.115 76.2614V74.4205C182.03 74.5227 181.843 74.6165 181.553 74.7017C181.269 74.7812 180.939 74.8523 180.564 74.9148C180.195 74.9716 179.834 75.0227 179.482 75.0682C179.135 75.108 178.854 75.142 178.638 75.1705C178.115 75.2386 177.627 75.3494 177.172 75.5028C176.723 75.6506 176.36 75.875 176.081 76.1761C175.809 76.4716 175.672 76.875 175.672 77.3864C175.672 78.0852 175.931 78.6136 176.448 78.9716C176.971 79.3239 177.632 79.5 178.434 79.5ZM193.082 86.1818C192.11 86.1818 191.275 86.0568 190.576 85.8068C189.877 85.5625 189.295 85.2386 188.829 84.8352C188.369 84.4375 188.002 84.0114 187.73 83.5568L189.332 82.4318C189.514 82.6705 189.744 82.9432 190.022 83.25C190.301 83.5625 190.681 83.8324 191.164 84.0597C191.653 84.2926 192.292 84.4091 193.082 84.4091C194.139 84.4091 195.011 84.1534 195.699 83.642C196.386 83.1307 196.73 82.3295 196.73 81.2386V78.5795H196.559C196.412 78.8182 196.201 79.1136 195.929 79.4659C195.662 79.8125 195.275 80.1222 194.77 80.3949C194.27 80.6619 193.593 80.7955 192.741 80.7955C191.684 80.7955 190.735 80.5455 189.895 80.0455C189.059 79.5455 188.397 78.8182 187.909 77.8636C187.426 76.9091 187.184 75.75 187.184 74.3864C187.184 73.0455 187.42 71.8778 187.892 70.8835C188.363 69.8835 189.02 69.1108 189.86 68.5653C190.701 68.0142 191.673 67.7386 192.775 67.7386C193.627 67.7386 194.304 67.8807 194.804 68.1648C195.309 68.4432 195.696 68.7614 195.963 69.1193C196.235 69.4716 196.446 69.7614 196.593 69.9886H196.798V67.9091H198.741V81.375C198.741 82.5 198.485 83.4148 197.974 84.1193C197.468 84.8295 196.787 85.3494 195.929 85.679C195.076 86.0142 194.127 86.1818 193.082 86.1818ZM193.014 78.9886C193.821 78.9886 194.502 78.804 195.059 78.4347C195.616 78.0653 196.039 77.5341 196.329 76.8409C196.619 76.1477 196.764 75.3182 196.764 74.3523C196.764 73.4091 196.622 72.5767 196.338 71.8551C196.054 71.1335 195.633 70.5682 195.076 70.1591C194.52 69.75 193.832 69.5455 193.014 69.5455C192.162 69.5455 191.451 69.7614 190.883 70.1932C190.321 70.625 189.897 71.2045 189.613 71.9318C189.335 72.6591 189.196 73.4659 189.196 74.3523C189.196 75.2614 189.338 76.0653 189.622 76.7642C189.912 77.4574 190.338 78.0028 190.9 78.4006C191.468 78.7926 192.173 78.9886 193.014 78.9886ZM207.912 81.2727C206.65 81.2727 205.562 80.9943 204.647 80.4375C203.738 79.875 203.037 79.0909 202.542 78.0852C202.054 77.0739 201.809 75.8977 201.809 74.5568C201.809 73.2159 202.054 72.0341 202.542 71.0114C203.037 69.983 203.724 69.1818 204.605 68.608C205.491 68.0284 206.525 67.7386 207.707 67.7386C208.389 67.7386 209.062 67.8523 209.727 68.0795C210.392 68.3068 210.997 68.6761 211.542 69.1875C212.088 69.6932 212.522 70.3636 212.846 71.1989C213.17 72.0341 213.332 73.0625 213.332 74.2841V75.1364H203.241V73.3977H211.287C211.287 72.6591 211.139 72 210.843 71.4205C210.554 70.8409 210.139 70.3835 209.599 70.0483C209.065 69.7131 208.434 69.5455 207.707 69.5455C206.906 69.5455 206.213 69.7443 205.627 70.142C205.048 70.5341 204.602 71.0455 204.289 71.6761C203.977 72.3068 203.821 72.983 203.821 73.7045V74.8636C203.821 75.8523 203.991 76.6903 204.332 77.3778C204.679 78.0597 205.159 78.5795 205.772 78.9375C206.386 79.2898 207.099 79.4659 207.912 79.4659C208.44 79.4659 208.917 79.392 209.343 79.2443C209.775 79.0909 210.147 78.8636 210.46 78.5625C210.772 78.2557 211.014 77.875 211.184 77.4205L213.127 77.9659C212.923 78.625 212.579 79.2045 212.096 79.7045C211.613 80.1989 211.017 80.5852 210.306 80.8636C209.596 81.1364 208.798 81.2727 207.912 81.2727ZM216.392 81V67.9091H218.335V69.8864H218.471C218.71 69.2386 219.142 68.7131 219.767 68.3097C220.392 67.9062 221.096 67.7045 221.88 67.7045C222.028 67.7045 222.213 67.7074 222.434 67.7131C222.656 67.7187 222.824 67.7273 222.937 67.7386V69.7841C222.869 69.767 222.713 69.7415 222.468 69.7074C222.23 69.6676 221.977 69.6477 221.71 69.6477C221.074 69.6477 220.505 69.7812 220.005 70.0483C219.511 70.3097 219.119 70.6733 218.829 71.1392C218.545 71.5994 218.403 72.125 218.403 72.7159V81H216.392Z" fill="#FF8B37"/>
</svg>
