<svg width="46" height="46" viewBox="0 0 46 46" fill="none" xmlns="http://www.w3.org/2000/svg">
<path d="M23.0019 3.83337C33.5873 3.83337 42.1686 12.4146 42.1686 23C42.1686 33.5854 33.5873 42.1667 23.0019 42.1667C19.4869 42.1667 16.193 41.2206 13.3608 39.569L3.84322 42.1667L6.43447 32.6437C4.78196 29.8111 3.83521 26.5162 3.83521 23C3.83521 12.4146 12.4164 3.83337 23.0019 3.83337ZM16.0853 14.0077C15.8373 14.0251 15.5941 14.0857 15.3728 14.1989C15.2067 14.2839 15.0525 14.4067 14.8102 14.6354C14.5815 14.8514 14.4489 15.0401 14.3092 15.2219C13.6006 16.1445 13.2198 17.277 13.2269 18.4403C13.2307 19.3806 13.475 20.2945 13.8607 21.1478C14.643 22.8781 15.933 24.7074 17.637 26.4038C18.0464 26.8113 18.4474 27.2232 18.8798 27.6039C20.9948 29.4661 23.5152 30.8089 26.2405 31.5258C26.2405 31.5258 27.3138 31.6906 27.3295 31.6915C27.6851 31.7107 28.0401 31.685 28.396 31.6668C28.9543 31.6381 29.4994 31.487 29.9928 31.2243C30.31 31.0554 30.46 30.9715 30.7263 30.8036C30.7263 30.8036 30.8079 30.7484 30.9655 30.6311C31.2242 30.4382 31.3841 30.3025 31.5993 30.0791C31.758 29.9142 31.8945 29.7195 31.9999 29.5C32.1498 29.1872 32.3006 28.5902 32.3606 28.0943C32.4064 27.7156 32.3926 27.5086 32.3876 27.3804C32.3794 27.1742 32.209 26.962 32.0223 26.8719L30.9078 26.3709C30.9078 26.3709 29.2412 25.6456 28.222 25.1806C28.1158 25.1321 27.9996 25.1097 27.8829 25.1026C27.6272 25.0869 27.3407 25.1536 27.1584 25.3457C27.1488 25.3418 27.0219 25.4515 25.6352 27.1314C25.5587 27.2228 25.3795 27.4216 25.0696 27.403C25.0228 27.3997 24.9763 27.393 24.9308 27.3812C24.8053 27.348 24.683 27.3043 24.5634 27.2537C24.3263 27.1531 24.2431 27.1149 24.0812 27.0452C22.9747 26.5618 21.9592 25.9151 21.0617 25.1237C20.8209 24.9117 20.5971 24.6834 20.3663 24.4598C19.5609 23.6791 18.9016 22.8488 18.4111 22.0298C18.3843 21.9852 18.343 21.9206 18.2986 21.8483C18.2183 21.7178 18.1298 21.5625 18.102 21.456C18.0308 21.174 18.2198 20.9475 18.2198 20.9475C18.2198 20.9475 18.6863 20.4375 18.9031 20.1601C19.1116 19.8931 19.2916 19.6321 19.4062 19.446C19.632 19.083 19.7035 18.7079 19.5849 18.4185C19.0471 17.1075 18.4923 15.8036 17.9206 14.5072C17.8077 14.2513 17.472 14.0654 17.1668 14.0302C17.0634 14.0182 16.9601 14.0062 16.8563 13.9994C16.5993 13.9869 16.3419 13.9896 16.0853 14.0077Z" fill="white"/>
</svg>
